HIERARCHY
ROOT Hips
{
  OFFSET -17.8222 7.7 127.125
  CHANNELS 6 Xposition Yposition Zposition Zrotation Xrotation Yrotation
  JOINT Spine
  {
    OFFSET 0 0 0
    CHANNELS 3 Zrotation Xrotation Yrotation
    JOINT Spine1
    {
      OFFSET 19 0 0
      CHANNELS 3 Zrotation Xrotation Yrotation
      JOINT Neck
      {
        OFFSET 22.5 0.6 0
        CHANNELS 3 Zrotation Xrotation Yrotation
        JOINT Head
        {
          OFFSET 14 0.0308777 0
          CHANNELS 3 Zrotation Xrotation Yrotation
          End Site
          {
            OFFSET 17 0 0
          }
        }
      }
      JOINT LeftShoulder
      {
        OFFSET 19.8 3.7 4.3
        CHANNELS 3 Zrotation Xrotation Yrotation
        JOINT LeftArm
        {
          OFFSET 8 0 0
          CHANNELS 3 Zrotation Xrotation Yrotation
          JOINT LeftForeArm
          {
            OFFSET 15.2 0 0
            CHANNELS 3 Zrotation Xrotation Yrotation
            JOINT LeftHand
            {
              OFFSET 17.8 0 0
              CHANNELS 3 Zrotation Xrotation Yrotation
              End Site
              {
                OFFSET 7.2 0 0
              }
            }
          }
        }
      }
      JOINT RightShoulder
      {
        OFFSET 19.8 3.7 -4.3
        CHANNELS 3 Zrotation Xrotation Yrotation
        JOINT RightArm
        {
          OFFSET 8 0 0.151654
          CHANNELS 3 Zrotation Xrotation Yrotation
          JOINT RightForeArm
          {
            OFFSET 15.2 0 0
            CHANNELS 3 Zrotation Xrotation Yrotation
            JOINT RightHand
            {
              OFFSET 17.8 0 0
              CHANNELS 3 Zrotation Xrotation Yrotation
              End Site
              {
                OFFSET 7.2 0 0
              }
            }
          }
        }
      }
    }
  }
  JOINT LeftUpLeg
  {
    OFFSET 5.98425 -7.666 4.78879
    CHANNELS 3 Zrotation Xrotation Yrotation
    JOINT LeftLeg
    {
      OFFSET 16 0 0
      CHANNELS 3 Zrotation Xrotation Yrotation
      JOINT LeftFoot
      {
        OFFSET 18 0 0
        CHANNELS 3 Zrotation Xrotation Yrotation
        End Site
        {
          OFFSET 0 -10.8 0
        }
      }
    }
  }
  JOINT RightUpLeg
  {
    OFFSET 5.98425 -7.66598 -4.78879
    CHANNELS 3 Zrotation Xrotation Yrotation
    JOINT RightLeg
    {
      OFFSET 16 0 0
      CHANNELS 3 Zrotation Xrotation Yrotation
      JOINT RightFoot
      {
        OFFSET 18 0 0
        CHANNELS 3 Zrotation Xrotation Yrotation
        End Site
        {
          OFFSET 0 -10.8 0
        }
      }
    }
  }
  JOINT Tail
  {
    OFFSET 6.83696 -0.722574 0
    CHANNELS 3 Zrotation Xrotation Yrotation
    JOINT Tail1
    {
      OFFSET 12 0 0
      CHANNELS 3 Zrotation Xrotation Yrotation
      End Site
      {
        OFFSET 12 0 0
      }
    }
  }
}
MOTION
Frames:	7
Frame Time:	0.0166667
55.9527 45.6658 -71.4477 -4.95881 1.17016 74.9102 -171.069 -0.24696 -9.06962 -16.8093 -2.31978 10.8137 -17.6401 -16.3907 14.502 -92.511 67.0375 109.289 -109.345 -34.863 -138.713 138.219 -40.8272 -122.695 -48.675 13.0816 -5.04156 -8.96325 2.83796 -18.9711 77.7926 -25.7439 43.077 33.5185 -53.864 -44.9243 -55.3762 -17.2648 1.16612 -7.16801 -0.0367808 4.56634 -120.71 -2.03162 -14.9845 94.5401 15.1647 1.09877 43.105 -3.03686 -5.63174 -123.107 4.78024 -8.8188 76.8947 -7.94497 -3.11892 49.3029 1.47808 -0.500234 -49.7541 41.9515 -9.36419 -3.98825 -42.5761 -1.69617 
55.8915 45.6261 -71.4637 -4.86908 0.809415 74.7931 -170.621 -0.411733 -9.37409 -16.9783 -2.47737 10.9989 -17.6411 -16.2827 14.4595 -92.6936 66.7618 109.737 -109.417 -34.9241 -138.791 137.967 -41.0846 -122.875 -49.1301 13.0834 -4.9753 -8.71339 2.80504 -19.0084 77.826 -25.6888 43.0585 33.8664 -54.0519 -44.8552 -55.7727 -15.7779 1.39903 -5.90454 -0.322061 5.5082 -122.523 -2.39464 -15.2869 97.0554 14.484 0.970459 41.0023 -2.93922 -5.48767 -123.033 4.65337 -8.76474 77.405 -7.81525 -3.05386 49.2672 1.50034 -0.495317 -49.523 42.13 -9.39653 -3.92064 -43.2974 -1.11635 
55.7999 45.5945 -71.4747 -4.75101 0.483322 74.6054 -170.202 -0.633461 -9.96091 -17.1468 -2.71946 11.4069 -17.5685 -16.2633 14.4877 -92.9259 66.2539 110.26 -109.428 -34.9701 -138.725 137.875 -41.3731 -122.859 -49.5105 13.1259 -4.94081 -8.41565 2.78128 -19.1678 77.8804 -25.5942 43.0145 34.3131 -54.119 -44.323 -56.1137 -17.1349 1.20193 -7.01023 -0.0362268 4.43205 -125.156 -2.87428 -16.0097 100.081 13.9595 0.926078 38.4178 -2.85683 -5.36256 -122.822 4.49577 -8.83339 77.7709 -7.89842 -2.97454 48.8921 1.54456 -0.429366 -50.0376 42.3121 -8.57982 -3.70466 -43.5059 -1.2776 
55.7332 45.5895 -71.4762 -4.65223 0.28641 74.3657 -169.84 -0.842751 -10.6126 -17.3606 -2.96586 11.8823 -17.3952 -16.4153 14.6874 -93.079 65.8187 110.456 -109.389 -35.0214 -138.512 137.929 -41.5839 -122.527 -49.6355 13.3078 -5.02475 -8.3089 2.78434 -19.3566 77.8995 -25.5416 42.9415 34.6429 -54.2561 -43.8259 -56.4046 -18.5104 0.969342 -8.15703 0.229592 3.48348 -127.597 -3.3083 -16.6392 102.058 13.9387 1.01037 35.3139 -2.83798 -5.33348 -122.591 4.32137 -8.90882 77.9048 -8.07991 -2.89782 48.5641 1.60427 -0.344759 -50.737 42.4948 -7.78499 -3.4716 -43.7322 -1.46105 
55.6876 45.593 -71.4498 -4.62929 0.0212355 74.0785 -169.252 -1.06098 -11.1363 -17.7604 -3.172 12.1566 -17.1591 -16.4673 14.8137 -93.8527 64.9716 111.062 -109.399 -35.0227 -138.539 137.496 -41.8269 -122.623 -50.0536 13.467 -5.09378 -8.22968 2.79021 -19.5183 77.9185 -25.4495 42.7511 34.9835 -54.5528 -43.3735 -56.8056 -18.4222 0.921407 -8.07415 0.198623 3.63559 -129.652 -3.68054 -16.973 102.901 13.648 1.17657 32.7175 -2.80501 -5.2848 -122.313 4.14439 -8.89697 78.0628 -8.25649 -2.83625 48.518 1.68643 -0.268596 -51.1175 42.5573 -7.24005 -3.55667 -44.1923 -1.53901 
55.6276 45.6073 -71.381 -4.61389 -0.168082 73.803 -168.808 -1.22454 -11.5434 -18.0601 -3.29145 12.283 -16.7917 -16.72 15.0282 -94.7958 63.7293 111.599 -109.396 -34.989 -138.597 137.116 -41.9857 -122.715 -50.3776 13.4713 -5.16411 -8.22033 2.79952 -19.6265 77.9341 -25.371 42.5853 35.2503 -54.8321 -42.9933 -57.0654 -18.3918 0.891215 -8.03984 0.181896 3.77745 -131.526 -3.9863 -17.3787 102.551 13.1433 1.54042 32.2458 -2.77284 -5.23891 -121.983 4.02895 -8.83628 78.0911 -8.40265 -2.81397 48.4775 1.76881 -0.192875 -51.4387 42.4978 -6.71884 -3.75279 -44.4853 -1.72756 
55.5874 45.652 -71.3028 -4.60735 -0.285185 73.562 -168.539 -1.30451 -11.8203 -18.1925 -3.30721 12.2948 -16.5194 -17.1086 15.1956 -95.4886 62.1605 112.152 -109.411 -34.9901 -138.637 136.946 -42.055 -122.686 -50.4882 13.5062 -5.23055 -8.34941 2.8073 -19.653 77.9536 -25.333 42.5565 35.3805 -54.98 -42.8755 -57.1221 -18.4673 0.91267 -8.16079 0.163228 3.96748 -132.908 -4.12809 -17.5453 100.951 12.82 2.0678 32.22 -2.77133 -5.25378 -121.617 3.92019 -8.75352 77.9538 -8.65956 -2.81303 48.3974 1.86339 -0.0994291 -51.7768 42.4342 -6.25807 -3.9706 -44.7887 -1.92145 
